<?xml version="1.0" encoding="UTF-8" standalone="no"?>
<!DOCTYPE svg PUBLIC "-//W3C//DTD SVG 1.1//EN" "http://www.w3.org/Graphics/SVG/1.1/DTD/svg11.dtd">
<!-- Generated by graphviz version 2.30.1 (20180420.1509)
 -->
<!-- Title: G Pages: 1 -->
<svg width="461pt" height="476pt" viewBox="0.00 0.00 461.00 476.00" xmlns="http://www.w3.org/2000/svg" xmlns:xlink="http://www.w3.org/1999/xlink">
<g id="graph0" class="graph" transform="scale(1 1) rotate(0) translate(4 472)">
<title>G</title>
<polygon fill="none" stroke="none" points="-4,5 -4,-472 458,-472 458,5 -4,5"/>
<!-- x1 -->
<g id="node1" class="node"><title>x1</title>
<ellipse fill="none" stroke="rgb(187,187,187)" cx="27" cy="-234" rx="27" ry="18"/>
<text text-anchor="middle" x="27" y="-230.3" font-family="Times,serif" font-size="14.00" fill="rgb(187,187,187)">x</text>
</g>
<!-- x2 -->
<g id="node2" class="node"><title>x2</title>
<ellipse fill="none" stroke="rgb(187,187,187)" cx="138" cy="-90" rx="27" ry="18"/>
<text text-anchor="middle" x="138" y="-86.3" font-family="Times,serif" font-size="14.00" fill="rgb(187,187,187)">x</text>
</g>
<!-- x3 -->
<g id="node3" class="node"><title>x3</title>
<ellipse fill="none" stroke="rgb(187,187,187)" cx="318" cy="-90" rx="27" ry="18"/>
<text text-anchor="middle" x="318" y="-86.3" font-family="Times,serif" font-size="14.00" fill="rgb(187,187,187)">x</text>
</g>
<!-- x4 -->
<g id="node4" class="node"><title>x4</title>
<ellipse fill="none" stroke="rgb(187,187,187)" cx="354" cy="-18" rx="27" ry="18"/>
<text text-anchor="middle" x="354" y="-14.3" font-family="Times,serif" font-size="14.00" fill="rgb(187,187,187)">x</text>
</g>
<!-- block1 -->
<g id="node5" class="node"><title>block1</title>
<polygon fill="none" stroke="rgb(187,187,187)" points="215,-396 161,-396 161,-360 215,-360 215,-396"/>
<text text-anchor="middle" x="188" y="-374.3" font-family="Times,serif" font-size="14.00" fill="rgb(187,187,187)">block</text>
</g>
<!-- while -->
<g id="node10" class="node"><title>while</title>
<polygon fill="none" stroke="rgb(187,187,187)" points="215,-324 161,-324 161,-288 215,-288 215,-324"/>
<text text-anchor="middle" x="188" y="-302.3" font-family="Times,serif" font-size="14.00" fill="rgb(187,187,187)">while</text>
</g>
<!-- block1&#45;&gt;while -->
<g id="edge4" class="edge"><title>block1-&gt;while</title>
<path fill="none" stroke="rgb(187,187,187)" d="M188,-359.697C188,-351.983 188,-342.712 188,-334.112"/>
<polygon fill="rgb(187,187,187)" stroke="rgb(187,187,187)" points="191.5,-334.104 188,-324.104 184.5,-334.104 191.5,-334.104"/>
</g>
<!-- continue -->
<g id="node11" class="node"><title>continue</title>
<polygon fill="none" stroke="rgb(187,187,187)" points="296.25,-324 233.75,-324 233.75,-288 296.25,-288 296.25,-324"/>
<text text-anchor="middle" x="265" y="-302.3" font-family="Times,serif" font-size="14.00" fill="rgb(187,187,187)">continue</text>
</g>
<!-- block1&#45;&gt;continue -->
<g id="edge5" class="edge"><title>block1-&gt;continue</title>
<path fill="none" stroke="rgb(187,187,187)" d="M207.034,-359.697C216.545,-351.05 228.207,-340.449 238.57,-331.027"/>
<polygon fill="rgb(187,187,187)" stroke="rgb(187,187,187)" points="241.14,-333.421 246.185,-324.104 236.431,-328.241 241.14,-333.421"/>
</g>
<!-- block2 -->
<g id="node6" class="node"><title>block2</title>
<polygon fill="none" stroke="rgb(187,187,187)" points="304,-252 250,-252 250,-216 304,-216 304,-252"/>
<text text-anchor="middle" x="277" y="-230.3" font-family="Times,serif" font-size="14.00" fill="rgb(187,187,187)">block</text>
</g>
<!-- break -->
<g id="node12" class="node"><title>break</title>
<polygon fill="none" stroke="rgb(187,187,187)" points="295,-180 241,-180 241,-144 295,-144 295,-180"/>
<text text-anchor="middle" x="268" y="-158.3" font-family="Times,serif" font-size="14.00" fill="rgb(187,187,187)">break</text>
</g>
<!-- block2&#45;&gt;break -->
<g id="edge11" class="edge"><title>block2-&gt;break</title>
<path fill="none" stroke="rgb(187,187,187)" d="M274.775,-215.697C273.783,-207.983 272.592,-198.712 271.486,-190.112"/>
<polygon fill="rgb(187,187,187)" stroke="rgb(187,187,187)" points="274.946,-189.576 270.199,-180.104 268.003,-190.469 274.946,-189.576"/>
</g>
<!-- = -->
<g id="node16" class="node"><title>=</title>
<ellipse fill="none" stroke="rgb(187,187,187)" cx="340" cy="-162" rx="27" ry="18"/>
<text text-anchor="middle" x="340" y="-158.3" font-family="Times,serif" font-size="14.00" fill="rgb(187,187,187)">=</text>
</g>
<!-- block2&#45;&gt;= -->
<g id="edge12" class="edge"><title>block2-&gt;=</title>
<path fill="none" stroke="rgb(187,187,187)" d="M292.573,-215.697C300.854,-206.496 311.127,-195.082 319.992,-185.231"/>
<polygon fill="rgb(187,187,187)" stroke="rgb(187,187,187)" points="322.647,-187.513 326.736,-177.738 317.444,-182.83 322.647,-187.513"/>
</g>
<!-- condition1 -->
<g id="node7" class="node"><title>condition1</title>
<ellipse fill="none" stroke="rgb(187,187,187)" cx="99" cy="-378" rx="44.2946" ry="18"/>
<text text-anchor="middle" x="99" y="-374.3" font-family="Times,serif" font-size="14.00" fill="rgb(187,187,187)">condition</text>
</g>
<!-- == -->
<g id="node13" class="node"><title>==</title>
<ellipse fill="none" stroke="rgb(187,187,187)" cx="99" cy="-306" rx="27" ry="18"/>
<text text-anchor="middle" x="99" y="-302.3" font-family="Times,serif" font-size="14.00" fill="rgb(187,187,187)">==</text>
</g>
<!-- condition1&#45;&gt;== -->
<g id="edge2" class="edge"><title>condition1-&gt;==</title>
<path fill="none" stroke="rgb(187,187,187)" d="M99,-359.697C99,-351.983 99,-342.712 99,-334.112"/>
<polygon fill="rgb(187,187,187)" stroke="rgb(187,187,187)" points="102.5,-334.104 99,-324.104 95.5001,-334.104 102.5,-334.104"/>
</g>
<!-- condition2 -->
<g id="node8" class="node"><title>condition2</title>
<ellipse fill="none" stroke="rgb(187,187,187)" cx="188" cy="-234" rx="44.2946" ry="18"/>
<text text-anchor="middle" x="188" y="-230.3" font-family="Times,serif" font-size="14.00" fill="rgb(187,187,187)">condition</text>
</g>
<!-- != -->
<g id="node15" class="node"><title>!=</title>
<ellipse fill="none" stroke="rgb(187,187,187)" cx="188" cy="-162" rx="27" ry="18"/>
<text text-anchor="middle" x="188" y="-158.3" font-family="Times,serif" font-size="14.00" fill="rgb(187,187,187)">!=</text>
</g>
<!-- condition2&#45;&gt;!= -->
<g id="edge9" class="edge"><title>condition2-&gt;!=</title>
<path fill="none" stroke="rgb(187,187,187)" d="M188,-215.697C188,-207.983 188,-198.712 188,-190.112"/>
<polygon fill="rgb(187,187,187)" stroke="rgb(187,187,187)" points="191.5,-190.104 188,-180.104 184.5,-190.104 191.5,-190.104"/>
</g>
<!-- if -->
<g id="node9" class="node"><title>if</title>
<polygon fill="none" stroke="rgb(187,187,187)" points="170,-468 116,-468 116,-432 170,-432 170,-468"/>
<text text-anchor="middle" x="143" y="-446.3" font-family="Times,serif" font-size="14.00" fill="rgb(187,187,187)">if</text>
</g>
<!-- if&#45;&gt;condition1 -->
<g id="edge1" class="edge"><title>if-&gt;condition1</title>
<path fill="none" stroke="rgb(187,187,187)" d="M132.124,-431.697C126.932,-423.437 120.619,-413.394 114.903,-404.299"/>
<polygon fill="rgb(187,187,187)" stroke="rgb(187,187,187)" points="117.733,-402.226 109.448,-395.622 111.807,-405.951 117.733,-402.226"/>
</g>
<!-- if&#45;&gt;block1 -->
<g id="edge3" class="edge"><title>if-&gt;block1</title>
<path fill="none" stroke="rgb(187,187,187)" d="M154.124,-431.697C159.355,-423.559 165.7,-413.689 171.478,-404.701"/>
<polygon fill="rgb(187,187,187)" stroke="rgb(187,187,187)" points="174.541,-406.409 177.004,-396.104 168.653,-402.623 174.541,-406.409"/>
</g>
<!-- while&#45;&gt;condition2 -->
<g id="edge8" class="edge"><title>while-&gt;condition2</title>
<path fill="none" stroke="rgb(187,187,187)" d="M188,-287.697C188,-279.983 188,-270.712 188,-262.112"/>
<polygon fill="rgb(187,187,187)" stroke="rgb(187,187,187)" points="191.5,-262.104 188,-252.104 184.5,-262.104 191.5,-262.104"/>
</g>
<!-- while&#45;&gt;block2 -->
<g id="edge10" class="edge"><title>while-&gt;block2</title>
<path fill="none" stroke="rgb(187,187,187)" d="M210,-287.697C221.209,-278.881 235.002,-268.032 247.154,-258.474"/>
<polygon fill="rgb(187,187,187)" stroke="rgb(187,187,187)" points="249.557,-261.038 255.253,-252.104 245.229,-255.535 249.557,-261.038"/>
</g>
<!-- ==&#45;&gt;x1 -->
<g id="edge6" class="edge"><title>==-&gt;x1</title>
<path fill="none" stroke="rgb(187,187,187)" d="M84.4297,-290.834C74.2501,-280.938 60.4761,-267.546 48.9694,-256.359"/>
<polygon fill="rgb(187,187,187)" stroke="rgb(187,187,187)" points="51.4055,-253.846 41.7957,-249.385 46.5259,-258.865 51.4055,-253.846"/>
</g>
<!-- 2 -->
<g id="node14" class="node"><title>2</title>
<ellipse fill="none" stroke="rgb(187,187,187)" cx="99" cy="-234" rx="27" ry="18"/>
<text text-anchor="middle" x="99" y="-230.3" font-family="Times,serif" font-size="14.00" fill="rgb(187,187,187)">2</text>
</g>
<!-- ==&#45;&gt;2 -->
<g id="edge7" class="edge"><title>==-&gt;2</title>
<path fill="none" stroke="rgb(187,187,187)" d="M99,-287.697C99,-279.983 99,-270.712 99,-262.112"/>
<polygon fill="rgb(187,187,187)" stroke="rgb(187,187,187)" points="102.5,-262.104 99,-252.104 95.5001,-262.104 102.5,-262.104"/>
</g>
<!-- !=&#45;&gt;x2 -->
<g id="edge13" class="edge"><title>!=-&gt;x2</title>
<path fill="none" stroke="rgb(187,187,187)" d="M176.903,-145.465C170.495,-136.493 162.299,-125.019 155.084,-114.918"/>
<polygon fill="rgb(187,187,187)" stroke="rgb(187,187,187)" points="157.726,-112.595 149.066,-106.492 152.03,-116.664 157.726,-112.595"/>
</g>
<!-- 3 -->
<g id="node17" class="node"><title>3</title>
<ellipse fill="none" stroke="rgb(187,187,187)" cx="210" cy="-90" rx="27" ry="18"/>
<text text-anchor="middle" x="210" y="-86.3" font-family="Times,serif" font-size="14.00" fill="rgb(187,187,187)">3</text>
</g>
<!-- !=&#45;&gt;3 -->
<g id="edge14" class="edge"><title>!=-&gt;3</title>
<path fill="none" stroke="rgb(187,187,187)" d="M193.326,-144.055C195.839,-136.059 198.896,-126.331 201.703,-117.4"/>
<polygon fill="rgb(187,187,187)" stroke="rgb(187,187,187)" points="205.064,-118.378 204.723,-107.789 198.386,-116.28 205.064,-118.378"/>
</g>
<!-- =&#45;&gt;x3 -->
<g id="edge15" class="edge"><title>=-&gt;x3</title>
<path fill="none" stroke="rgb(187,187,187)" d="M334.674,-144.055C332.161,-136.059 329.104,-126.331 326.297,-117.4"/>
<polygon fill="rgb(187,187,187)" stroke="rgb(187,187,187)" points="329.614,-116.28 323.277,-107.789 322.936,-118.378 329.614,-116.28"/>
</g>
<!-- + -->
<g id="node18" class="node"><title>+</title>
<ellipse fill="none" stroke="rgb(187,187,187)" cx="390" cy="-90" rx="27" ry="18"/>
<text text-anchor="middle" x="390" y="-86.3" font-family="Times,serif" font-size="14.00" fill="rgb(187,187,187)">+</text>
</g>
<!-- =&#45;&gt;+ -->
<g id="edge16" class="edge"><title>=-&gt;+</title>
<path fill="none" stroke="rgb(187,187,187)" d="M351.097,-145.465C357.505,-136.493 365.701,-125.019 372.916,-114.918"/>
<polygon fill="rgb(187,187,187)" stroke="rgb(187,187,187)" points="375.97,-116.664 378.934,-106.492 370.274,-112.595 375.97,-116.664"/>
</g>
<!-- +&#45;&gt;x4 -->
<g id="edge17" class="edge"><title>+-&gt;x4</title>
<path fill="none" stroke="rgb(187,187,187)" d="M381.65,-72.7646C377.288,-64.2831 371.853,-53.7144 366.959,-44.1974"/>
<polygon fill="rgb(187,187,187)" stroke="rgb(187,187,187)" points="369.99,-42.4395 362.304,-35.1473 363.765,-45.6409 369.99,-42.4395"/>
</g>
<!-- 1 -->
<g id="node19" class="node"><title>1</title>
<ellipse fill="none" stroke="rgb(187,187,187)" cx="426" cy="-18" rx="27" ry="18"/>
<text text-anchor="middle" x="426" y="-14.3" font-family="Times,serif" font-size="14.00" fill="rgb(187,187,187)">1</text>
</g>
<!-- +&#45;&gt;1 -->
<g id="edge18" class="edge"><title>+-&gt;1</title>
<path fill="none" stroke="rgb(187,187,187)" d="M398.35,-72.7646C402.712,-64.2831 408.147,-53.7144 413.041,-44.1974"/>
<polygon fill="rgb(187,187,187)" stroke="rgb(187,187,187)" points="416.235,-45.6409 417.696,-35.1473 410.01,-42.4395 416.235,-45.6409"/>
</g>
</g>
</svg>